HIERARCHY
ROOT hip
{
  OFFSET 0 0 0
  CHANNELS 6 Xposition Yposition Zposition Zrotation Yrotation Xrotation
  JOINT abdomen
  {
    OFFSET 0 20.6881 -0.73152
    CHANNELS 3 Zrotation Xrotation Yrotation
    JOINT chest
    {
      OFFSET 0 11.7043 -0.48768
      CHANNELS 3 Zrotation Xrotation Yrotation
      JOINT neck
      {
        OFFSET 0 22.1894 -2.19456
        CHANNELS 3 Zrotation Xrotation Yrotation
        JOINT head
        {
          OFFSET -0.24384 7.07133 1.2192
          CHANNELS 3 Zrotation Xrotation Yrotation
          JOINT leftEye
          {
            OFFSET 4.14528 8.04674 8.04672
            CHANNELS 3 Zrotation Xrotation Yrotation
            End Site
            {
              OFFSET 1 0 0
            }
          }
          JOINT rightEye
          {
            OFFSET -3.6576 8.04674 8.04672
            CHANNELS 3 Zrotation Xrotation Yrotation
            End Site
            {
              OFFSET 1 0 0
            }
          }
        }
      }
      JOINT rCollar
      {
        OFFSET -2.68224 19.2634 -4.8768
        CHANNELS 3 Zrotation Xrotation Yrotation
        JOINT rShldr
        {
          OFFSET -8.77824 -1.95073 1.46304
          CHANNELS 3 Zrotation Xrotation Yrotation
          JOINT rForeArm
          {
            OFFSET -28.1742 -1.7115 0.48768
            CHANNELS 3 Zrotation Xrotation Yrotation
            JOINT rHand
            {
              OFFSET -22.5879 0.773209 7.07136
              CHANNELS 3 Zrotation Xrotation Yrotation
              JOINT rThumb1
              {
                OFFSET -1.2192 -0.487915 3.41376
                CHANNELS 3 Zrotation Xrotation Yrotation
                JOINT rThumb2
                {
                  OFFSET -3.37035 -0.52449 3.41376
                  CHANNELS 3 Zrotation Xrotation Yrotation
                  End Site
                  {
                    OFFSET -1.78271 -1.18214 1.43049
                  }
                }
              }
              JOINT rIndex1
              {
                OFFSET -7.75947 0.938293 5.60832
                CHANNELS 3 Zrotation Xrotation Yrotation
                JOINT rIndex2
                {
                  OFFSET -2.54057 -0.884171 1.56538
                  CHANNELS 3 Zrotation Xrotation Yrotation
                  End Site
                  {
                    OFFSET -1.62519 -0.234802 1.16502
                  }
                }
              }
              JOINT rMid1
              {
                OFFSET -8.24714 1.18213 3.41376
                CHANNELS 3 Zrotation Xrotation Yrotation
                JOINT rMid2
                {
                  OFFSET -3.10165 -0.590103 1.0647
                  CHANNELS 3 Zrotation Xrotation Yrotation
                  End Site
                  {
                    OFFSET -2.48547 -0.328903 0.83742
                  }
                }
              }
              JOINT rRing1
              {
                OFFSET -8.82822 0.546677 1.51678
                CHANNELS 3 Zrotation Xrotation Yrotation
                JOINT rRing2
                {
                  OFFSET -2.60934 -0.819778 -0.0198488
                  CHANNELS 3 Zrotation Xrotation Yrotation
                  End Site
                  {
                    OFFSET -2.33842 -0.294052 0.168128
                  }
                }
              }
              JOINT rPinky1
              {
                OFFSET -8.27202 -0.0477905 -0.4584
                CHANNELS 3 Zrotation Xrotation Yrotation
                JOINT rPinky2
                {
                  OFFSET -1.82734 -0.647385 -0.700984
                  CHANNELS 3 Zrotation Xrotation Yrotation
                  End Site
                  {
                    OFFSET -1.69225 -0.51767 -0.607171
                  }
                }
              }
            }
          }
        }
      }
      JOINT lCollar
      {
        OFFSET 2.68224 19.2634 -4.8768
        CHANNELS 3 Zrotation Xrotation Yrotation
        JOINT lShldr
        {
          OFFSET 8.77824 -1.95073 1.46304
          CHANNELS 3 Zrotation Xrotation Yrotation
          JOINT lForeArm
          {
            OFFSET 28.1742 -1.7115 0.48768
            CHANNELS 3 Zrotation Xrotation Yrotation
            JOINT lHand
            {
              OFFSET 22.5879 0.773209 7.07136
              CHANNELS 3 Zrotation Xrotation Yrotation
              JOINT lThumb1
              {
                OFFSET 1.2192 -0.487915 3.41376
                CHANNELS 3 Zrotation Xrotation Yrotation
                JOINT lThumb2
                {
                  OFFSET 3.37035 -0.52449 3.41376
                  CHANNELS 3 Zrotation Xrotation Yrotation
                  End Site
                  {
                    OFFSET 1.78271 -1.18214 1.43049
                  }
                }
              }
              JOINT lIndex1
              {
                OFFSET 7.75947 0.938293 5.60832
                CHANNELS 3 Zrotation Xrotation Yrotation
                JOINT lIndex2
                {
                  OFFSET 2.54057 -0.884171 1.56538
                  CHANNELS 3 Zrotation Xrotation Yrotation
                  End Site
                  {
                    OFFSET 1.62519 -0.234802 1.16502
                  }
                }
              }
              JOINT lMid1
              {
                OFFSET 8.24714 1.18213 3.41376
                CHANNELS 3 Zrotation Xrotation Yrotation
                JOINT lMid2
                {
                  OFFSET 3.10165 -0.590103 1.0647
                  CHANNELS 3 Zrotation Xrotation Yrotation
                  End Site
                  {
                    OFFSET 2.48547 -0.328903 0.83742
                  }
                }
              }
              JOINT lRing1
              {
                OFFSET 8.82822 0.546677 1.51678
                CHANNELS 3 Zrotation Xrotation Yrotation
                JOINT lRing2
                {
                  OFFSET 2.60934 -0.819778 -0.0198488
                  CHANNELS 3 Zrotation Xrotation Yrotation
                  End Site
                  {
                    OFFSET 2.33842 -0.294052 0.168128
                  }
                }
              }
              JOINT lPinky1
              {
                OFFSET 8.27202 -0.0477905 -0.4584
                CHANNELS 3 Zrotation Xrotation Yrotation
                JOINT lPinky2
                {
                  OFFSET 1.82734 -0.647385 -0.700984
                  CHANNELS 3 Zrotation Xrotation Yrotation
                  End Site
                  {
                    OFFSET 1.69225 -0.51767 -0.607171
                  }
                }
              }
            }
          }
        }
      }
    }
  }
  JOINT rButtock
  {
    OFFSET -8.77824 4.35084 1.2192
    CHANNELS 3 Zrotation Xrotation Yrotation
    JOINT rThigh
    {
      OFFSET 0 -1.70687 -2.19456
      CHANNELS 3 Zrotation Xrotation Yrotation
      JOINT rShin
      {
        OFFSET 0 -36.8199 0.73152
        CHANNELS 3 Zrotation Xrotation Yrotation
        JOINT rFoot
        {
          OFFSET 0.73152 -45.1104 -5.12064
          CHANNELS 3 Zrotation Xrotation Yrotation
          End Site
          {
            OFFSET -1.1221 -3.69964 12.103
          }
        }
      }
    }
  }
  JOINT lButtock
  {
    OFFSET 8.77824 4.35084 1.2192
    CHANNELS 3 Zrotation Xrotation Yrotation
    JOINT lThigh
    {
      OFFSET 0 -1.70687 -2.19456
      CHANNELS 3 Zrotation Xrotation Yrotation
      JOINT lShin
      {
        OFFSET 0 -36.8199 0.73152
        CHANNELS 3 Zrotation Xrotation Yrotation
        JOINT lFoot
        {
          OFFSET -0.73152 -45.1104 -5.12064
          CHANNELS 3 Zrotation Xrotation Yrotation
          End Site
          {
            OFFSET 1.1221 -3.69964 12.103
          }
        }
      }
    }
  }
}
MOTION
Frames:	4
Frame Time:	0.00833333
50.1895 85.5269 142.172 0.0 0.0 0.0 2.34099 -0.00222385 0.0637208 0.646591 0.00595039 0.111937 4.88041e-14 0.0 6.70898e-16 1.456e-13 3.18055e-15 1.95989e-15 -0.0 0.0 0.0 -0.0 0.0 0.0 2.43497e-14 -1.5103e-16 4.47265e-16 5.13039e-13 -2.92586e-15 9.54166e-15 8.78936e-12 -2.74204e-12 6.99722e-14 1.00607e-10 2.05275e-12 1.45351e-12 2.3731e-10 -1.49898e-12 3.30778e-12 4.09817e-10 -2.58897e-12 5.69637e-12 2.37319e-10 -1.49526e-12 3.29187e-12 7.73091 5.47488 0.417314 2.3731e-10 -1.49864e-12 3.3046e-12 2.90554 0.965183 0.102902 2.37322e-10 -1.49814e-12 3.30539e-12 10.2786 0.731801 0.0259123 2.37309e-10 -1.50003e-12 3.31732e-12 2.22167 -0.733487 -0.20892 2.43541e-14 -1.52971e-16 2.48481e-16 5.07027e-13 -3.10601e-15 7.95139e-15 8.78429e-12 2.52655e-12 4.77083e-14 1.00578e-10 -3.21343e-12 1.49168e-12 2.37241e-10 -1.4903e-12 3.3046e-12 4.09714e-10 -2.57625e-12 5.70751e-12 2.37234e-10 -1.4889e-12 3.31732e-12 -7.73091 5.47488 -0.417314 2.37242e-10 -1.49069e-12 3.30142e-12 -2.90554 0.965183 -0.102902 2.37242e-10 -1.49059e-12 3.30937e-12 -10.2786 0.731801 -0.0259123 2.37245e-10 -1.48929e-12 3.30778e-12 -2.22167 -0.733487 0.20892 -2.03217e-16 0.0 -3.88251e-19 2.21586 -8.02969 -0.231385 0.00606934 8.9736 0.15205 -0.478077 -0.951421 0.0349055 2.03217e-16 0.0 3.88251e-19 1.35243 -1.92788 -0.0053641 0.00846387 -2.07867 0.0694362 0.423477 3.99898 -0.127233
51.0415 84.7655 130.577 -179.897 0.4529 -179.242 2.63259 -0.0128589 0.923946 0.478562 -1.91887 0.399267 -1.30666 2.28869 -0.387257 1.91464 -2.74202 -0.687436 -0.0 0.0 0.0 -0.0 0.0 0.0 2.12071e-15 9.77896e-16 -1.48914e-14 22.0677 13.9911 -2.46569 -5.13746 -2.55172 7.77415 0.0762301 6.13095 0.843934 1.14479e-10 -9.31888e-11 8.87228e-11 1.98764e-10 -1.62971e-10 1.54464e-10 1.14485e-10 -9.3185e-11 8.87075e-11 7.73091 5.47488 0.417314 1.14479e-10 -9.31902e-11 8.87214e-11 2.90554 0.965183 0.102902 1.14491e-10 -9.31872e-11 8.87198e-11 10.2786 0.731801 0.0259123 1.14478e-10 -9.31889e-11 8.87304e-11 2.22167 -0.733487 -0.20892 2.04849e-15 9.75063e-16 -1.51639e-14 -22.441 11.6282 2.32039 5.39388 -2.74111 -8.08569 -0.0160602 2.81171 -0.393442 3.47244e-10 2.2212e-10 6.33641e-11 6.00626e-10 3.82784e-10 1.07659e-10 3.47238e-10 2.2212e-10 6.3371e-11 -7.73091 5.47488 -0.417314 3.47244e-10 2.2212e-10 6.33598e-11 -2.90554 0.965183 -0.102902 3.47242e-10 2.2212e-10 6.33656e-11 -10.2786 0.731801 -0.0259123 3.47247e-10 2.22122e-10 6.33626e-11 -2.22167 -0.733487 0.20892 -2.03217e-16 0.0 -3.88251e-19 4.55871 -7.54262 4.72758 0.0236844 12.0303 0.220594 -1.44913 -4.80481 -8.73688 2.03217e-16 0.0 3.88251e-19 -0.133992 -3.15894 -5.91911 -0.00864874 3.18228 -0.105449 1.05457 -1.3697 5.43987
50.9837 84.7903 130.499 -179.863 -0.2269 -179.56 2.94103 -0.0264519 1.83777 0.321203 -3.95153 0.70542 -2.65479 4.70783 -0.798638 3.86965 -5.64152 -1.41899 -0.0 0.0 0.0 -0.0 0.0 0.0 -2.14552e-14 2.17139e-15 -3.18087e-14 46.8688 28.6837 -5.61108 -9.8238 -5.09347 16.0431 -0.0439665 12.6083 1.76891 -2.43547e-11 -1.84088e-10 1.77558e-10 -3.99293e-11 -3.22303e-10 3.09388e-10 -2.43513e-11 -1.84084e-10 1.77544e-10 7.73091 5.47488 0.417314 -2.43545e-11 -1.84092e-10 1.77559e-10 2.90554 0.965183 0.102902 -2.43417e-11 -1.84086e-10 1.77554e-10 10.2786 0.731801 0.0259123 -2.43547e-11 -1.84088e-10 1.77564e-10 2.22167 -0.733487 -0.20892 -2.16141e-14 2.16746e-15 -3.21627e-14 -47.2729 23.8536 5.11208 10.2634 -5.45696 -16.6922 0.00914673 5.78437 -0.812631 4.75458e-10 4.72114e-10 1.29251e-10 8.23102e-10 8.13601e-10 2.19453e-10 4.75454e-10 4.72112e-10 1.29251e-10 -7.73091 5.47488 -0.417314 4.75459e-10 4.72112e-10 1.29245e-10 -2.90554 0.965183 -0.102902 4.75454e-10 4.72113e-10 1.29248e-10 -10.2786 0.731801 -0.0259123 4.7546e-10 4.72116e-10 1.29244e-10 -2.22167 -0.733487 0.20892 -2.03217e-16 0.0 -3.88251e-19 6.94288 -6.97643 9.9637 0.0340863 15.2619 0.295447 -3.74959 -8.55114 -18.1554 2.03217e-16 0.0 3.88251e-19 -1.98117 -4.39528 -12.1878 0.00846791 8.7429 -0.293452 2.85626 -6.91934 11.4109
51.0584 84.7689 130.563 -179.831 0.4713 -179.316 3.21676 -0.0340977 2.6444 0.20069 -5.76782 0.978209 -3.82659 6.86482 -1.16923 5.54484 -8.2213 -2.08134 -0.0 0.0 0.0 -0.0 0.0 0.0 -4.23373e-14 3.23575e-15 -4.55687e-14 70.8348 41.6075 -9.61933 -13.3855 -7.09263 23.4896 -0.33771 18.3764 2.65268 -1.31183e-10 -2.76568e-10 2.59553e-10 -2.23342e-10 -4.83737e-10 4.51998e-10 -1.31183e-10 -2.76564e-10 2.59539e-10 7.73091 5.47488 0.417314 -1.31183e-10 -2.76573e-10 2.59555e-10 2.90554 0.965183 0.102902 -1.3117e-10 -2.76565e-10 2.59548e-10 10.2786 0.731801 0.0259123 -1.31183e-10 -2.76567e-10 2.59556e-10 2.22167 -0.733487 -0.20892 -4.25628e-14 3.23113e-15 -4.59888e-14 -70.6558 34.6301 8.29563 13.9209 -7.56964 -24.456 0.0687341 8.43352 -1.19179 5.6725e-10 6.69342e-10 1.83483e-10 9.8245e-10 1.1535e-09 3.11562e-10 5.67246e-10 6.69339e-10 1.83478e-10 -7.73091 5.47488 -0.417314 5.6725e-10 6.6934e-10 1.83477e-10 -2.90554 0.965183 -0.102902 5.67243e-10 6.69341e-10 1.83478e-10 -10.2786 0.731801 -0.0259123 5.6725e-10 6.69345e-10 1.83472e-10 -2.22167 -0.733487 0.20892 -2.03217e-16 0.0 -3.88251e-19 8.98667 -6.43163 14.612 0.0357486 18.1434 0.365019 -6.84801 -11.3601 -26.752 2.03217e-16 0.0 3.88251e-19 -3.85655 -5.40185 -17.8012 0.0554651 13.7038 -0.467961 5.44925 -11.615 16.9255
